<?xml version="1.0" standalone="no"?>
<!DOCTYPE svg PUBLIC "-//W3C//DTD SVG 20010904//EN"
 "http://www.w3.org/TR/2001/REC-SVG-20010904/DTD/svg10.dtd">
<svg version="1.0" xmlns="http://www.w3.org/2000/svg"
 width="1200.000000pt" height="1200.000000pt" viewBox="0 0 1200.000000 1200.000000"
 preserveAspectRatio="xMidYMid meet">
<metadata>
Created by potrace 1.11, written by Peter Selinger 2001-2013
</metadata>
<g transform="translate(0.000000,1200.000000) scale(0.100000,-0.100000)"
fill="#000000" stroke="none">
<path d="M6508 11582 l-2708 -2 0 -525 0 -525 305 0 305 0 0 220 0 220 2245 0
2245 0 -2 -460 -3 -460 483 0 482 0 0 -3255 0 -3255 -130 0 -130 0 0 -305 0
-305 435 0 435 0 0 3735 c0 3728 0 3735 -20 3735 -13 0 -20 7 -20 20 0 13 -7
20 -20 20 -13 0 -20 7 -20 20 0 11 -4 21 -10 21 -5 1 -16 2 -22 3 -7 0 -14 11
-16 24 -2 14 -10 22 -23 22 -12 0 -19 7 -19 20 0 11 -4 21 -10 21 -5 1 -16 2
-22 3 -7 0 -14 11 -16 24 -2 14 -10 22 -23 22 -12 0 -19 7 -19 20 0 13 -7 20
-20 20 -13 0 -20 7 -20 19 0 13 -8 21 -22 23 -17 2 -22 9 -21 26 2 17 -2 22
-22 22 -18 0 -25 5 -25 20 0 13 -7 20 -20 20 -15 0 -20 7 -20 25 0 20 -5 25
-25 25 -18 0 -25 5 -25 20 0 13 -7 20 -20 20 -13 0 -20 7 -20 19 0 13 -8 21
-22 23 -15 2 -24 11 -26 26 -2 14 -10 22 -23 22 -12 0 -19 7 -19 20 0 13 -7
20 -20 20 -15 0 -20 7 -20 25 0 23 -4 25 -45 25 -38 0 -45 3 -45 20 0 15 -7
20 -25 20 -18 0 -25 5 -25 20 0 18 -10 25 -32 21 -5 0 -8 10 -8 24 0 18 -5 25
-20 25 -13 0 -20 7 -20 20 0 15 -7 20 -25 20 -20 0 -25 5 -25 25 0 18 -5 25
-20 25 -13 0 -20 7 -20 20 0 15 -7 20 -25 20 -14 0 -24 3 -24 8 3 20 -3 30
-21 35 -12 3 -20 14 -20 26 0 14 -6 21 -20 21 -13 0 -20 7 -20 20 0 15 -7 20
-25 20 -20 0 -25 5 -25 25 0 18 -5 25 -20 25 -13 0 -20 7 -20 20 0 15 -7 20
-25 20 -18 0 -25 5 -25 19 0 10 -6 20 -12 22 -7 2 -1231 3 -2720 1z"/>
<path d="M2658 10378 c-2 -13 -2 -251 0 -530 l2 -508 305 0 305 0 0 220 0 220
2220 0 2220 0 0 -460 0 -460 483 -2 482 -3 3 -3247 2 -3248 -135 0 -135 0 0
-310 0 -310 440 0 440 0 0 3735 0 3735 -21 0 c-12 0 -23 8 -26 20 -3 10 -14
22 -24 25 -10 4 -19 15 -19 26 0 12 -7 19 -20 19 -13 0 -20 7 -20 19 0 13 -8
21 -22 23 -15 2 -24 11 -26 26 -2 14 -10 22 -23 22 -12 0 -19 7 -19 20 0 13
-7 20 -19 20 -11 0 -22 9 -26 19 -3 10 -15 21 -25 24 -12 3 -20 14 -20 26 0
14 -6 21 -20 21 -13 0 -20 7 -20 19 0 13 -8 21 -22 23 -13 2 -24 9 -24 16 -1
6 -2 17 -3 22 0 6 -10 10 -21 10 -13 0 -20 7 -20 20 0 15 -7 20 -25 20 -18 0
-25 5 -25 19 0 10 -9 21 -20 24 -12 3 -20 14 -20 26 0 14 -6 21 -20 21 -13 0
-20 7 -20 19 0 13 -8 21 -22 23 -15 2 -23 10 -23 23 0 13 -8 21 -22 23 -15 2
-23 10 -23 23 0 12 -7 19 -20 19 -13 0 -20 7 -20 20 0 17 -7 20 -45 20 -41 0
-45 2 -45 25 0 18 -5 25 -19 25 -11 0 -23 9 -26 20 -3 11 -15 20 -26 20 -14 0
-19 7 -19 25 0 18 -5 25 -20 25 -13 0 -20 7 -20 20 0 15 -7 20 -25 20 -18 0
-25 5 -25 20 0 13 -7 20 -20 20 -15 0 -20 7 -20 25 0 20 -5 25 -25 25 -18 0
-25 5 -25 20 0 13 -7 20 -19 20 -13 0 -21 8 -23 23 -2 15 -9 21 -20 19 -13 -2
-18 4 -18 23 0 20 -5 25 -25 25 -18 0 -25 5 -25 19 0 10 -9 21 -20 24 -12 3
-20 14 -20 26 l0 21 -2699 0 -2700 0 -3 -22z"/>
<path d="M1510 4755 l0 -4325 3330 -2 c1832 -2 3335 -2 3340 0 7 3 10 1256 10
3733 0 3722 0 3729 -20 3729 -15 0 -20 7 -20 25 0 20 -5 25 -25 25 -18 0 -25
5 -25 20 0 13 -7 20 -20 20 -13 0 -20 7 -20 19 0 16 -8 20 -42 23 -36 2 -44 7
-46 26 -2 14 -10 22 -23 22 -12 0 -19 7 -19 20 0 15 -7 20 -25 20 -20 0 -25 5
-25 25 0 18 -5 25 -20 25 -13 0 -20 7 -20 20 0 15 -7 20 -25 20 -18 0 -25 5
-25 19 0 10 -9 21 -20 24 -12 3 -20 14 -20 26 0 14 -6 21 -20 21 -13 0 -20 7
-20 19 0 13 -8 21 -22 23 -13 2 -24 9 -24 16 -1 6 -2 17 -3 22 0 6 -10 10 -21
10 -13 0 -20 7 -20 20 0 15 -7 20 -26 20 -14 0 -23 4 -20 8 7 11 -11 37 -26
37 -7 0 -14 10 -16 23 -2 14 -10 22 -23 22 -12 0 -19 7 -19 19 0 13 -8 21 -22
23 -15 2 -24 11 -26 26 -2 14 -10 22 -23 22 -12 0 -19 7 -19 20 0 15 -7 20
-25 20 -18 0 -25 5 -25 19 0 10 -9 21 -20 24 -12 3 -20 14 -20 26 0 14 -6 21
-20 21 -13 0 -20 7 -20 19 0 13 -8 21 -22 23 -15 2 -24 11 -26 26 -2 14 -10
22 -23 22 -12 0 -19 7 -19 20 0 13 -7 20 -20 20 -13 0 -20 7 -20 19 0 13 -8
21 -22 23 -15 2 -24 11 -26 26 -2 14 -10 22 -23 22 -12 0 -19 7 -19 20 0 14
-7 20 -21 20 -12 0 -23 8 -26 20 -3 11 -14 20 -24 20 -14 0 -19 7 -19 25 l0
25 -2725 0 -2725 0 0 -4325z m5100 3250 l0 -465 485 0 485 0 0 -3250 0 -3250
-2725 0 -2725 0 0 3715 0 3715 2240 0 2240 0 0 -465z"/>
<path d="M4720 6716 c0 -45 -142 -151 -260 -193 -36 -12 -73 -23 -82 -23 -16
0 -18 -29 -20 -388 l-3 -389 -38 -57 c-21 -32 -37 -59 -35 -60 2 -1 39 -13 83
-25 44 -13 155 -61 247 -107 l168 -85 199 107 c177 94 200 109 203 132 2 15 1
220 -2 456 l-5 429 -78 22 c-106 31 -229 92 -309 154 -64 49 -68 50 -68 27z
m158 -721 c1 -179 1 -325 -2 -325 -2 0 -48 20 -102 44 l-99 44 -3 325 -2 325
102 -44 103 -43 3 -326z"/>
<path d="M2717 6597 c-70 -67 -127 -126 -127 -131 0 -5 12 -24 26 -43 l26 -34
33 20 c59 35 60 32 63 -368 l3 -356 -45 -45 c-25 -24 -46 -47 -46 -50 0 -3 52
-53 116 -110 135 -120 104 -122 267 13 l108 90 -29 31 c-77 83 -72 57 -72 375
l0 286 72 72 c40 40 78 73 85 73 7 0 22 -18 33 -40 19 -37 20 -58 20 -365 0
-364 -2 -373 -65 -396 -19 -7 -35 -16 -35 -20 0 -4 51 -50 113 -103 79 -67
120 -96 138 -96 17 0 63 28 132 80 127 95 133 111 67 175 l-40 39 0 296 0 296
68 67 68 67 34 -35 35 -36 5 -377 c5 -365 6 -379 28 -432 31 -73 72 -113 137
-136 l55 -18 117 114 c65 63 119 118 121 121 1 3 -13 23 -31 44 -33 38 -34 38
-57 22 -34 -23 -38 -22 -55 20 -13 30 -15 90 -15 352 1 352 0 342 76 457 l37
56 -36 36 -37 36 -54 -53 -54 -53 -88 92 -88 91 -137 -137 -137 -136 -31 64
c-42 86 -110 161 -162 182 l-42 17 -86 -83 c-188 -182 -190 -183 -197 -162
-23 70 -73 152 -121 200 -30 30 -58 54 -62 54 -3 -1 -64 -56 -134 -123z"/>
<path d="M5493 6582 l-183 -137 39 -39 38 -38 65 41 c36 23 69 41 74 41 5 -1
47 -37 94 -80 l85 -80 -200 -200 -200 -200 46 0 c25 0 68 7 95 15 64 19 138
18 194 -3 60 -23 92 -81 87 -162 -6 -101 -64 -188 -197 -293 -89 -71 -119
-119 -120 -195 0 -85 42 -142 134 -181 99 -43 175 -22 187 53 5 31 2 40 -19
57 -21 16 -38 19 -90 17 -59 -3 -66 -1 -84 23 -34 44 1 100 92 148 163 85 298
183 343 248 71 103 98 244 62 329 -35 85 -129 164 -232 198 l-52 17 172 170
172 169 -70 -2 c-61 -2 -77 2 -125 27 -30 16 -92 67 -138 112 -46 46 -84 83
-85 82 -1 0 -84 -62 -184 -137z"/>
<path d="M6363 6584 c-101 -75 -183 -139 -182 -142 0 -4 18 -22 38 -39 l38
-33 63 41 c34 22 66 39 71 37 5 -2 46 -37 93 -78 l84 -75 -202 -202 -201 -203
49 0 c26 0 73 7 104 16 67 20 158 14 204 -13 44 -25 72 -84 71 -149 -1 -96
-71 -195 -219 -315 -104 -83 -131 -187 -71 -277 33 -51 129 -102 190 -102 60
0 75 7 92 41 21 40 19 62 -9 88 -23 21 -31 23 -89 17 -60 -7 -66 -6 -81 16
-40 57 -6 104 136 183 120 67 230 146 277 200 48 55 90 150 97 221 10 91 -14
154 -87 227 -54 54 -143 107 -181 107 -9 0 -19 4 -22 9 -4 5 72 84 166 175
l173 166 -76 -2 c-66 -2 -82 2 -121 25 -71 41 -140 99 -178 150 -19 25 -37 46
-40 47 -3 0 -87 -61 -187 -136z"/>
<path d="M2960 4575 c0 -22 -4 -25 -40 -25 l-40 0 0 -40 c0 -36 -2 -40 -25
-40 l-25 0 0 -109 c0 -106 1 -110 23 -113 18 -2 23 -10 25 -45 3 -43 3 -43 42
-43 31 0 39 -4 42 -20 3 -20 10 -20 578 -20 316 -1 583 0 593 0 10 0 17 8 17
20 0 17 -7 20 -45 20 -38 0 -45 3 -45 20 0 17 -7 20 -45 20 -41 0 -45 2 -45
25 0 18 -5 25 -20 25 -13 0 -20 7 -20 20 0 19 -7 20 -90 20 -82 0 -90 2 -90
19 0 16 -8 20 -42 23 -36 2 -44 7 -46 26 -3 18 -10 22 -43 22 -32 0 -39 3 -39
20 0 17 -7 20 -45 20 -41 0 -45 2 -45 25 0 23 -4 25 -45 25 -38 0 -45 3 -45
20 0 13 -7 20 -20 20 -13 0 -20 7 -20 20 0 20 -15 25 -67 20 -18 -1 -23 4 -23
24 l0 26 -155 0 -155 0 0 -25z"/>
<path d="M2920 3479 c0 -12 -8 -23 -20 -26 -11 -3 -20 -13 -21 -22 -1 -9 -2
-25 -3 -36 0 -13 -9 -21 -23 -23 -22 -3 -23 -7 -23 -113 0 -104 1 -109 21
-109 12 0 23 -8 26 -19 3 -11 13 -21 24 -24 11 -3 19 -14 19 -26 0 -14 6 -21
20 -21 13 0 20 -7 20 -20 0 -20 7 -20 1780 -20 1773 0 1780 0 1780 20 0 17 -7
20 -45 20 -38 0 -45 3 -45 20 0 18 -10 25 -32 21 -5 0 -8 19 -8 44 l0 45 -45
0 c-38 0 -45 3 -45 20 0 15 -7 20 -30 21 -52 2 -55 4 -58 27 -3 19 -9 22 -48
22 -37 0 -44 3 -44 20 0 17 -7 20 -40 20 -36 0 -40 3 -40 25 0 23 -4 25 -45
25 -38 0 -45 3 -45 20 0 17 -7 20 -45 20 -38 0 -45 3 -45 20 0 18 -7 20 -65
20 -63 0 -65 1 -65 25 l0 25 -1405 0 -1405 0 0 -21z"/>
<path d="M2878 2468 c-2 -17 -9 -23 -25 -22 -18 0 -23 -5 -23 -23 0 -16 -6
-23 -20 -23 -18 0 -20 -7 -20 -65 0 -63 -1 -65 -26 -65 -21 0 -25 -4 -22 -22
2 -15 10 -23 23 -23 18 0 20 -8 23 -67 3 -60 5 -68 22 -68 13 0 20 -7 20 -20
0 -15 7 -20 25 -20 18 0 25 -5 25 -20 0 -20 9 -20 1893 -22 1041 -2 1901 -2
1910 0 9 2 17 12 17 23 0 12 7 19 20 19 13 0 20 7 20 20 0 13 7 20 20 20 19 0
20 7 20 135 0 128 -1 135 -20 135 -17 0 -20 7 -20 40 0 33 -3 40 -20 40 -15 0
-20 7 -20 25 l0 25 -1909 0 -1910 0 -3 -22z"/>
</g>
</svg>
