<?xml version="1.0" standalone="no"?>
<!DOCTYPE svg PUBLIC "-//W3C//DTD SVG 20010904//EN"
 "http://www.w3.org/TR/2001/REC-SVG-20010904/DTD/svg10.dtd">
<svg version="1.0" xmlns="http://www.w3.org/2000/svg"
 width="2237.000000pt" height="2237.000000pt" viewBox="0 0 2237.000000 2237.000000"
 preserveAspectRatio="xMidYMid meet">
<metadata>
Created by potrace 1.11, written by Peter Selinger 2001-2013
</metadata>
<g transform="translate(0.000000,2237.000000) scale(0.100000,-0.100000)"
fill="#000000" stroke="none">
<path d="M5279 16853 c-13 -7 -34 -13 -46 -13 -12 0 -27 -9 -33 -20 -6 -11
-17 -20 -26 -20 -8 0 -17 -6 -20 -14 -3 -8 -20 -18 -37 -21 -18 -4 -41 -13
-53 -20 -11 -7 -58 -18 -104 -23 -56 -7 -86 -15 -92 -25 -4 -9 -22 -18 -38
-22 -17 -4 -43 -13 -59 -21 -15 -8 -57 -17 -92 -20 -35 -4 -77 -12 -94 -19
-16 -7 -51 -18 -77 -25 -26 -7 -49 -18 -52 -25 -3 -8 -32 -16 -73 -20 -37 -4
-73 -12 -80 -17 -7 -6 -25 -11 -40 -12 -51 -5 -103 -18 -103 -26 0 -5 -16 -14
-36 -20 -20 -7 -48 -18 -62 -26 -15 -8 -41 -14 -59 -14 -41 0 -133 -21 -133
-31 0 -4 -17 -10 -37 -14 -20 -4 -42 -13 -48 -21 -5 -8 -39 -19 -75 -25 -36
-6 -72 -14 -80 -17 -8 -3 -24 -6 -35 -8 -62 -7 -101 -18 -112 -31 -7 -9 -33
-19 -59 -24 -27 -5 -51 -14 -55 -20 -4 -7 -24 -13 -45 -15 -117 -10 -149 -16
-156 -29 -5 -7 -26 -16 -47 -20 -22 -4 -42 -12 -44 -19 -6 -14 -51 -26 -121
-32 -22 -2 -42 -8 -46 -13 -3 -5 -29 -13 -58 -17 -36 -4 -56 -12 -63 -25 -5
-11 -21 -19 -35 -19 -14 0 -35 -5 -47 -12 -26 -14 -29 -15 -131 -26 -53 -7
-82 -15 -87 -25 -5 -8 -28 -18 -52 -22 -23 -4 -49 -13 -57 -20 -8 -7 -50 -16
-93 -20 -43 -4 -81 -13 -85 -20 -4 -6 -25 -15 -47 -18 -21 -4 -52 -15 -67 -27
-14 -11 -43 -22 -63 -24 -20 -3 -42 -9 -49 -15 -7 -6 -35 -13 -62 -16 -85 -9
-112 -15 -123 -29 -7 -8 -28 -17 -49 -21 -20 -4 -40 -12 -44 -18 -4 -6 -40
-17 -80 -24 -40 -6 -74 -17 -76 -22 -2 -6 -11 -11 -19 -11 -15 0 -95 -57 -102
-73 -2 -5 -14 -12 -27 -17 -13 -5 -24 -16 -24 -25 0 -8 -6 -15 -13 -15 -7 0
-28 -20 -47 -45 -19 -25 -37 -45 -41 -45 -7 0 -60 -76 -71 -102 -4 -10 -12
-18 -18 -18 -6 0 -15 -12 -20 -26 -11 -28 -14 -4597 -3 -4697 4 -42 11 -61 24
-68 11 -5 19 -16 19 -24 0 -8 5 -15 11 -15 5 0 19 -20 30 -45 11 -25 24 -45
29 -45 6 0 10 -8 10 -18 0 -10 8 -25 18 -33 9 -9 27 -28 39 -42 13 -15 32 -27
44 -27 12 0 23 -8 26 -20 3 -11 14 -20 24 -20 11 0 22 -6 25 -14 3 -8 20 -18
37 -21 18 -4 46 -15 64 -25 18 -11 48 -22 68 -26 19 -3 35 -12 35 -19 0 -7 16
-16 36 -20 21 -3 46 -12 58 -20 12 -7 53 -16 91 -20 39 -4 79 -12 90 -20 11
-7 35 -16 53 -19 17 -4 36 -15 41 -24 7 -12 31 -18 90 -23 47 -4 92 -14 106
-23 13 -9 40 -16 60 -16 22 0 38 -6 41 -14 3 -8 19 -18 36 -21 17 -4 47 -14
67 -23 20 -9 52 -17 71 -18 55 -3 132 -21 165 -38 17 -9 38 -16 47 -16 9 0 21
-7 26 -15 5 -10 33 -18 83 -24 40 -5 88 -14 104 -21 17 -6 39 -14 50 -16 11
-2 32 -13 47 -24 15 -11 34 -20 43 -20 9 0 35 -8 58 -19 23 -10 66 -19 95 -20
59 -2 102 -15 102 -31 0 -5 9 -10 21 -10 20 0 60 -17 69 -30 3 -4 52 -12 110
-19 58 -7 107 -16 110 -20 3 -4 28 -15 55 -25 28 -11 55 -23 61 -27 9 -8 40
-13 126 -23 9 -1 22 -7 30 -13 7 -6 30 -13 50 -17 21 -4 69 -23 108 -42 56
-27 88 -36 150 -41 44 -3 80 -10 80 -14 0 -5 6 -9 14 -9 7 0 38 -14 69 -30 31
-16 69 -30 84 -30 16 0 44 -5 63 -10 19 -6 66 -17 105 -26 38 -8 72 -18 75
-22 13 -19 152 -62 218 -68 39 -3 72 -10 72 -14 0 -5 10 -12 23 -15 12 -4 46
-18 75 -31 31 -14 72 -24 100 -24 26 0 59 -6 74 -14 15 -8 52 -20 82 -26 30
-6 57 -17 59 -24 3 -7 25 -16 48 -20 24 -4 46 -12 50 -17 3 -6 45 -14 93 -18
53 -5 93 -14 104 -24 9 -8 33 -18 52 -22 19 -4 40 -14 46 -23 7 -10 35 -16 85
-19 41 -3 84 -11 96 -19 12 -7 40 -16 62 -20 24 -4 41 -12 41 -20 0 -14 12
-18 75 -29 22 -4 42 -10 45 -15 3 -4 28 -11 55 -14 81 -10 103 -16 108 -30 3
-7 22 -13 43 -14 23 -1 44 -9 56 -22 10 -11 29 -20 41 -21 107 -3 142 -9 153
-23 6 -9 20 -16 30 -16 10 0 32 -7 47 -15 48 -25 179 -62 244 -70 37 -4 73
-15 87 -26 13 -10 33 -19 45 -19 11 0 28 -8 38 -19 13 -13 38 -20 94 -24 52
-3 95 -14 133 -31 31 -14 61 -26 66 -26 6 0 10 -4 10 -9 0 -5 33 -14 73 -21
39 -6 86 -15 102 -20 17 -5 50 -12 73 -16 24 -4 46 -13 49 -20 2 -7 28 -18 56
-24 29 -7 57 -17 64 -22 6 -5 46 -13 88 -17 42 -4 80 -12 83 -18 4 -6 21 -15
37 -19 16 -4 44 -16 62 -26 17 -11 58 -22 90 -25 32 -3 67 -11 78 -18 11 -7
41 -16 65 -20 25 -4 56 -16 69 -26 13 -11 31 -19 40 -19 9 0 26 -6 37 -14 11
-8 58 -17 104 -21 52 -5 97 -14 115 -25 17 -10 45 -21 63 -25 17 -3 32 -10 32
-15 0 -12 93 -29 170 -31 45 -2 68 -7 76 -18 16 -21 247 -22 284 -1 30 17 23
15 130 24 56 5 93 14 110 26 14 10 42 21 62 25 20 4 39 13 41 19 3 8 35 15 83
19 42 3 80 10 84 16 3 6 29 15 58 21 29 5 62 16 74 24 13 8 44 20 71 27 26 6
47 15 47 18 0 11 140 4 154 -8 6 -5 31 -13 54 -17 27 -4 42 -12 42 -21 0 -8 9
-17 20 -20 11 -3 20 -12 20 -19 0 -8 7 -14 15 -14 8 0 20 -9 27 -20 7 -11 16
-20 19 -20 4 0 105 -97 225 -215 124 -122 225 -215 236 -215 10 0 18 -7 18
-15 0 -8 9 -15 19 -15 10 0 29 -11 42 -25 13 -13 31 -25 40 -25 9 0 22 -6 28
-14 20 -24 161 -63 235 -65 38 -1 72 -3 75 -6 14 -8 259 17 294 30 20 8 50 15
66 15 16 0 31 6 34 14 3 8 22 18 42 22 19 3 39 13 44 22 6 10 30 16 84 20 57
3 80 9 93 23 9 11 27 19 39 19 12 0 32 9 45 20 22 19 57 24 160 23 60 0 70 -3
70 -17 0 -7 14 -16 30 -19 18 -4 30 -13 30 -22 0 -9 7 -18 15 -21 8 -4 15 -15
15 -26 0 -11 8 -22 19 -25 14 -4 20 -17 24 -58 3 -29 12 -64 20 -77 9 -12 21
-42 28 -65 7 -24 16 -43 20 -43 5 0 14 -19 20 -42 7 -24 19 -52 26 -63 7 -11
13 -27 13 -37 0 -9 9 -20 20 -23 11 -3 20 -14 20 -23 0 -9 12 -28 25 -41 14
-13 25 -29 25 -35 0 -7 12 -18 27 -25 15 -7 33 -21 41 -32 7 -10 22 -19 33
-19 10 0 19 -6 19 -14 0 -9 16 -17 41 -21 22 -4 43 -13 46 -20 2 -8 29 -19 59
-25 30 -6 54 -15 54 -19 0 -4 27 -12 59 -19 32 -7 61 -18 64 -26 3 -7 23 -17
44 -21 21 -4 43 -11 50 -17 7 -5 17 -7 22 -4 5 4 12 2 16 -4 3 -5 32 -10 64
-10 43 0 65 -5 84 -20 14 -11 39 -20 56 -20 18 0 38 -9 50 -21 16 -17 37 -23
107 -30 48 -4 90 -12 93 -17 3 -6 24 -13 45 -17 21 -4 46 -15 56 -25 9 -9 36
-20 60 -24 24 -4 48 -10 54 -14 13 -8 23 -10 104 -20 35 -5 67 -14 70 -20 4
-6 21 -14 37 -18 17 -3 37 -13 46 -21 18 -15 116 -32 185 -33 26 0 44 -5 47
-14 3 -7 20 -16 38 -20 18 -3 40 -12 48 -20 17 -14 154 -51 231 -61 25 -4 52
-12 60 -20 8 -7 29 -16 47 -20 17 -3 37 -13 43 -21 7 -7 16 -11 22 -8 5 3 14
1 21 -4 7 -5 43 -12 81 -14 49 -3 72 -9 81 -21 7 -10 26 -17 44 -17 18 0 49
-11 69 -25 22 -15 51 -25 72 -25 19 0 54 -7 77 -15 24 -8 67 -18 98 -21 34 -4
55 -12 55 -19 0 -7 17 -16 37 -20 21 -4 51 -14 68 -23 16 -9 63 -19 102 -22
47 -4 79 -13 91 -23 10 -10 30 -17 45 -17 14 0 29 -5 32 -11 14 -21 122 -49
193 -49 12 0 22 -4 22 -9 0 -5 16 -12 36 -15 19 -4 50 -16 67 -27 18 -10 41
-19 52 -19 11 0 30 -6 41 -14 11 -8 47 -17 79 -20 106 -11 135 -17 135 -31 0
-8 17 -16 40 -20 25 -4 40 -12 40 -21 0 -8 9 -14 20 -14 12 0 34 -7 51 -15 41
-22 445 -21 487 1 15 7 37 14 50 14 12 0 25 6 28 14 3 8 23 22 45 30 21 9 39
20 39 25 0 4 33 11 73 13 39 3 86 13 102 22 17 9 40 16 51 16 12 0 33 9 47 20
13 11 49 25 78 31 30 6 59 15 64 19 6 4 38 11 72 15 37 4 73 15 87 26 13 10
36 19 50 19 15 0 38 8 53 17 14 9 53 20 86 24 33 4 62 11 66 17 3 5 13 9 21
10 38 3 98 20 120 34 14 9 43 20 65 24 22 3 45 9 50 13 6 3 19 7 30 8 58 8
125 28 169 49 28 13 57 24 66 24 9 0 21 5 27 11 5 5 41 12 79 15 41 4 83 14
102 25 18 10 42 19 52 19 11 0 27 9 37 19 13 13 39 21 88 26 39 4 77 13 85 20
8 7 37 15 63 18 26 2 53 11 60 20 7 8 29 18 49 21 21 4 41 13 45 21 6 10 38
16 103 21 69 5 101 12 119 25 13 11 32 19 42 19 10 0 22 7 26 15 6 10 36 18
87 25 43 5 92 17 109 25 16 8 44 15 61 15 19 0 38 8 48 19 10 12 37 23 65 27
26 4 51 11 54 16 3 5 38 14 77 18 88 11 122 20 122 30 0 5 18 11 40 15 22 4
44 14 49 22 6 11 30 17 82 20 47 4 85 12 105 24 17 11 45 19 62 19 21 0 35 7
42 20 6 11 14 19 18 18 16 -4 102 14 102 22 0 4 28 13 62 19 34 6 66 17 70 25
4 7 20 17 35 21 15 3 33 15 41 26 7 10 20 19 28 19 8 0 14 7 14 15 0 9 11 20
25 25 14 5 25 14 25 19 0 5 9 13 20 16 11 3 20 15 20 26 0 10 6 19 13 19 8 0
19 11 25 25 6 14 16 25 21 25 5 0 14 13 21 29 6 16 18 32 26 35 8 3 14 15 14
27 0 12 8 23 19 26 13 3 22 21 31 61 7 31 14 60 17 65 10 16 3 1271 -7 1281
-5 5 -10 34 -10 63 0 39 -5 58 -20 73 -11 11 -22 31 -26 45 -3 14 -15 30 -25
36 -11 5 -19 14 -19 19 0 18 -56 99 -68 100 -8 0 -16 9 -19 20 -3 10 -14 22
-24 25 -10 4 -19 12 -19 20 0 8 -8 16 -19 20 -10 3 -26 14 -36 25 -10 11 -28
20 -39 20 -12 0 -29 9 -39 20 -9 11 -26 20 -37 20 -12 0 -34 10 -50 21 -17 13
-50 24 -82 27 -29 2 -57 8 -63 12 -5 5 -30 13 -55 20 -25 6 -54 20 -65 30 -11
10 -44 20 -74 23 -30 4 -58 12 -61 18 -4 6 -38 13 -76 16 -47 4 -74 11 -86 23
-9 10 -34 21 -55 24 -21 4 -47 13 -58 20 -11 7 -47 16 -80 20 -32 4 -72 13
-87 21 -15 7 -42 16 -59 20 -17 4 -46 15 -63 25 -17 10 -53 20 -80 24 -27 3
-54 10 -60 16 -12 9 -113 31 -148 31 -9 0 -19 6 -21 13 -3 7 -20 16 -38 20
-18 3 -40 12 -48 20 -9 8 -52 16 -101 20 -53 3 -89 11 -95 19 -5 8 -25 17 -44
20 -19 4 -42 14 -51 22 -9 8 -46 19 -82 24 -36 5 -74 14 -84 20 -11 5 -41 13
-67 16 -27 4 -51 12 -53 20 -3 7 -24 17 -47 20 -23 4 -49 14 -58 21 -9 8 -54
19 -99 24 -46 5 -86 14 -89 19 -3 4 -22 12 -41 16 -19 4 -50 16 -69 26 -18 11
-61 22 -95 25 -33 4 -70 12 -81 19 -11 6 -40 14 -63 18 -24 3 -54 15 -66 26
-13 12 -36 21 -53 21 -18 0 -38 6 -46 14 -8 8 -46 17 -88 21 -48 4 -84 14
-101 26 -15 10 -41 19 -57 19 -17 0 -34 7 -39 15 -5 9 -34 20 -73 26 -35 6
-71 14 -79 17 -8 3 -22 6 -30 7 -26 2 -105 27 -110 35 -9 13 -163 58 -224 65
-34 3 -71 14 -87 26 -15 10 -34 19 -43 19 -9 0 -29 9 -45 21 -27 19 -39 20
-220 17 -167 -3 -194 -5 -202 -20 -5 -9 -28 -19 -52 -23 -23 -4 -48 -12 -56
-18 -11 -10 -92 -27 -247 -54 -18 -3 -42 1 -55 8 -13 8 -28 14 -34 15 -36 3
-64 25 -70 56 -4 18 -13 40 -21 49 -14 16 -12 52 4 73 5 6 13 37 16 68 4 31
15 67 25 80 10 13 21 35 25 51 3 15 11 27 17 27 5 0 17 16 25 35 8 19 19 35
24 35 6 0 10 5 10 11 0 6 11 25 25 43 14 18 25 38 25 44 0 7 7 20 16 29 25 29
64 93 64 106 0 7 11 25 25 41 14 16 25 35 25 43 0 7 7 13 15 13 8 0 15 9 15
19 0 11 4 22 10 26 5 3 7 12 3 20 -3 10 1 15 11 15 9 0 21 11 26 25 5 14 14
25 19 25 6 0 13 16 17 36 4 19 12 38 19 41 7 2 16 15 19 27 3 12 17 36 31 52
14 16 31 36 38 44 17 21 46 71 58 102 6 14 17 29 24 32 8 3 17 21 21 40 3 21
12 36 20 36 8 0 14 8 14 18 0 10 11 29 25 42 14 13 25 32 25 42 0 10 6 21 14
24 8 3 20 20 27 37 7 18 19 36 26 40 7 4 13 17 13 28 0 11 7 22 15 25 8 3 20
21 27 40 6 19 18 34 25 34 7 0 13 6 13 14 0 8 6 21 13 28 19 21 37 56 37 73 0
8 6 15 14 15 9 0 17 15 21 39 4 26 13 41 24 44 12 3 21 18 25 41 4 22 13 36
21 36 8 0 15 8 15 18 0 9 9 32 20 50 12 19 25 66 31 105 6 40 15 101 20 137 5
36 7 85 4 110 -3 25 -7 65 -9 90 -6 67 -34 193 -45 199 -5 3 -16 22 -25 41
-32 68 -47 90 -62 90 -7 0 -14 7 -14 16 0 9 -9 18 -20 21 -11 3 -20 14 -20 23
0 10 -9 22 -20 25 -11 3 -20 12 -20 20 0 8 -9 16 -19 20 -11 3 -23 15 -26 26
-4 10 -12 19 -20 19 -8 0 -16 9 -20 19 -3 10 -15 21 -25 24 -11 3 -20 12 -20
20 0 8 -9 17 -20 20 -11 3 -20 12 -20 20 0 8 -9 17 -20 20 -11 3 -20 12 -20
20 0 9 -9 19 -20 22 -11 3 -20 12 -20 20 0 8 -9 16 -19 20 -11 3 -23 15 -26
26 -4 10 -12 19 -20 19 -8 0 -16 9 -20 19 -3 10 -15 21 -25 24 -11 3 -20 12
-20 20 0 8 -9 17 -20 20 -11 3 -20 12 -20 20 0 8 -9 17 -20 20 -11 3 -20 12
-20 20 0 9 -9 19 -20 22 -11 3 -20 12 -20 20 0 8 -9 16 -19 20 -11 3 -23 15
-26 26 -4 10 -12 19 -20 19 -8 0 -16 9 -20 19 -3 10 -15 21 -25 24 -11 3 -20
12 -20 21 0 9 -7 16 -15 16 -8 0 -19 9 -25 20 -6 11 -17 20 -25 20 -8 0 -15 7
-15 14 0 15 -26 32 -90 61 -19 8 -71 34 -116 56 l-81 41 -182 -4 c-156 -3
-184 -5 -192 -19 -8 -15 -53 -34 -63 -27 -2 2 -14 -6 -26 -17 -16 -14 -40 -20
-93 -23 -45 -3 -75 -9 -80 -17 -4 -8 -22 -17 -39 -21 -18 -3 -37 -13 -43 -20
-5 -8 -35 -18 -64 -24 -30 -6 -57 -14 -60 -18 -4 -5 -15 -9 -26 -9 -58 -3
-132 -17 -145 -29 -8 -7 -35 -20 -60 -29 -25 -9 -54 -21 -65 -25 -11 -5 -50
-12 -87 -15 -37 -4 -72 -13 -78 -20 -6 -8 -26 -17 -43 -20 -18 -4 -41 -13 -53
-20 -12 -8 -49 -19 -84 -25 -34 -6 -70 -15 -79 -20 -9 -4 -43 -13 -75 -19 -32
-6 -66 -17 -75 -25 -9 -7 -31 -17 -48 -21 -18 -3 -36 -12 -40 -19 -5 -8 -40
-16 -86 -19 -64 -6 -89 -13 -145 -44 -66 -37 -68 -37 -180 -38 -98 0 -115 2
-123 18 -6 9 -17 17 -25 17 -8 0 -19 11 -24 25 -5 14 -16 25 -24 25 -9 0 -17
16 -21 43 -4 23 -13 45 -19 49 -7 5 -13 94 -16 283 -5 250 -7 277 -22 286 -10
6 -18 19 -18 29 0 11 -9 29 -19 39 -11 11 -23 37 -27 57 -4 20 -14 45 -23 54
-9 10 -27 32 -41 51 -14 18 -35 44 -47 57 -13 14 -23 29 -23 33 0 5 -7 9 -16
9 -9 0 -18 8 -21 18 -5 17 -81 72 -101 72 -6 0 -15 7 -20 15 -5 10 -35 20 -78
27 -38 6 -76 17 -84 23 -8 7 -30 16 -47 20 -18 3 -36 12 -40 20 -7 11 -97 36
-148 41 -11 0 -33 6 -48 13 -16 6 -41 11 -57 11 -19 0 -33 7 -40 20 -6 11 -18
20 -28 20 -9 0 -30 7 -47 16 -16 9 -67 20 -112 24 -55 4 -89 12 -101 23 -10
10 -30 17 -45 17 -14 0 -32 6 -39 14 -17 16 -45 26 -112 36 -52 9 -70 13 -96
23 -8 3 -30 8 -48 11 -19 3 -48 12 -65 20 -101 43 -130 52 -197 61 -76 10 -98
16 -111 31 -6 8 -19 14 -29 14 -9 0 -28 8 -41 19 -16 12 -50 21 -104 25 -44 4
-89 13 -100 20 -11 7 -37 16 -58 20 -21 4 -40 13 -43 21 -3 7 -22 16 -42 20
-20 4 -48 13 -62 20 -14 7 -64 16 -112 20 -63 5 -93 12 -108 25 -12 10 -34 22
-50 25 -16 3 -34 13 -41 21 -8 9 -32 14 -78 14 -49 0 -74 5 -96 20 -16 11 -40
20 -51 20 -12 0 -33 9 -47 20 -14 11 -33 20 -44 20 -10 0 -31 7 -47 15 -15 8
-69 20 -120 27 -63 8 -96 17 -109 30 -10 10 -27 18 -39 18 -12 0 -30 7 -40 17
-12 11 -47 18 -110 24 -51 4 -94 12 -96 18 -2 6 -20 13 -40 17 -20 4 -45 15
-54 24 -10 11 -40 21 -78 25 -34 4 -74 13 -88 21 -15 8 -42 14 -60 14 -18 0
-50 9 -70 20 -83 44 -130 59 -197 66 -38 4 -74 13 -80 19 -5 7 -35 18 -65 25
-30 7 -59 19 -65 25 -8 11 -74 24 -137 28 -10 1 -18 4 -18 8 0 4 -28 12 -61
18 -35 6 -67 17 -74 27 -7 10 -31 19 -64 22 -29 2 -55 10 -57 17 -3 8 -35 16
-80 20 -48 4 -77 12 -80 20 -3 8 -23 16 -45 20 -21 4 -43 14 -47 22 -6 10 -31
17 -78 20 -38 3 -75 10 -83 16 -7 6 -20 12 -30 14 -39 5 -101 26 -101 34 0 4
-17 11 -37 15 -21 4 -51 15 -68 26 -21 13 -50 18 -97 18 -63 0 -118 14 -118
30 0 4 -16 10 -36 13 -20 3 -41 13 -48 22 -7 10 -39 18 -91 24 -86 10 -191 42
-209 65 -6 8 -33 17 -61 21 -27 4 -54 10 -60 15 -5 4 -32 11 -60 14 -63 8 -86
15 -105 31 -8 7 -28 16 -45 19 -16 4 -37 14 -46 22 -9 8 -53 18 -102 23 -48 5
-93 13 -99 19 -7 5 -38 13 -69 16 -45 6 -58 11 -62 27 -4 15 -14 19 -44 19
-21 0 -51 7 -66 15 -16 8 -48 17 -70 19 -73 8 -107 18 -107 32 0 8 -10 14 -24
14 -13 0 -34 8 -47 18 -16 13 -50 21 -98 26 -40 3 -79 10 -85 13 -6 4 -15 8
-21 8 -5 0 -27 8 -49 18 -21 9 -42 17 -46 17 -4 0 -10 6 -13 14 -4 9 -27 16
-64 19 -60 6 -78 9 -103 19 -8 4 -32 9 -54 12 -21 3 -47 13 -58 23 -10 9 -26
18 -35 19 -8 2 -25 11 -37 22 -41 36 -101 45 -327 46 -153 1 -222 -3 -240 -11z
m536 -659 c30 -13 61 -24 69 -24 8 0 19 -7 24 -16 6 -10 35 -19 88 -26 43 -6
82 -15 85 -20 3 -5 31 -12 62 -15 47 -5 57 -9 57 -24 0 -15 7 -19 32 -19 17 0
39 -6 47 -14 9 -7 55 -18 102 -23 65 -8 104 -19 162 -47 42 -21 95 -39 119
-40 65 -5 118 -17 118 -27 0 -5 15 -9 33 -9 18 0 48 -11 69 -25 20 -14 45 -25
55 -25 10 0 30 -6 45 -14 15 -8 58 -17 95 -21 37 -4 75 -13 83 -20 8 -8 29
-17 45 -21 17 -3 38 -13 47 -21 9 -8 54 -19 100 -24 46 -5 90 -14 99 -18 9 -5
35 -14 57 -21 23 -6 48 -17 56 -25 8 -8 21 -15 28 -15 7 0 58 -11 113 -25 55
-14 112 -25 127 -25 15 0 31 -6 35 -13 4 -7 24 -19 43 -27 19 -8 38 -18 41
-23 3 -5 51 -13 105 -17 54 -5 100 -9 102 -10 1 0 2 -7 2 -15 0 -10 10 -15 30
-15 16 0 37 -8 47 -19 10 -10 46 -23 83 -30 126 -23 250 -54 250 -61 0 -5 17
-14 38 -21 20 -6 43 -16 49 -21 7 -6 50 -14 95 -18 80 -7 187 -43 203 -69 3
-6 17 -11 30 -11 48 0 246 -52 252 -66 3 -7 21 -16 41 -20 21 -4 43 -11 51
-17 15 -13 19 -14 123 -26 48 -5 83 -15 93 -25 9 -9 29 -16 44 -16 16 0 39 -8
52 -19 21 -16 106 -33 163 -32 10 0 25 -7 33 -15 8 -7 27 -14 42 -14 16 0 39
-8 52 -19 13 -10 40 -22 59 -26 19 -4 44 -13 55 -20 11 -7 51 -15 90 -19 44
-3 79 -12 95 -24 14 -10 38 -22 54 -26 15 -4 34 -13 41 -20 8 -7 48 -16 91
-19 42 -3 80 -10 84 -16 3 -6 28 -15 55 -20 27 -5 54 -16 61 -25 6 -9 18 -16
27 -16 9 0 36 -7 61 -15 24 -8 79 -20 120 -25 42 -5 86 -16 98 -24 13 -8 38
-17 56 -21 18 -4 39 -13 47 -22 10 -9 44 -17 93 -20 45 -4 80 -11 84 -18 4 -7
24 -16 43 -19 20 -4 38 -13 41 -21 3 -8 22 -17 42 -21 21 -3 68 -15 107 -25
38 -11 83 -19 100 -19 16 0 41 -7 55 -15 45 -26 75 -38 92 -37 9 0 19 -5 21
-12 4 -9 37 -15 99 -20 60 -4 97 -12 103 -21 6 -7 28 -16 48 -20 23 -5 37 -13
37 -22 0 -9 11 -26 25 -39 14 -13 25 -34 25 -48 0 -13 6 -26 13 -29 9 -3 9 -7
1 -18 -7 -8 -15 -33 -19 -57 -4 -24 -13 -46 -21 -49 -7 -3 -16 -20 -20 -39 -4
-25 -11 -34 -26 -34 -10 0 -29 -11 -42 -25 -13 -14 -31 -25 -40 -25 -9 0 -16
-7 -16 -15 0 -8 -7 -15 -15 -15 -8 0 -39 -11 -69 -25 -38 -17 -73 -25 -113
-25 -36 -1 -73 -8 -98 -20 -22 -11 -48 -19 -58 -20 -10 0 -20 -7 -23 -14 -3
-8 -31 -20 -62 -27 -32 -6 -60 -15 -63 -20 -3 -5 -41 -13 -84 -19 -43 -5 -85
-16 -94 -24 -9 -8 -29 -18 -46 -22 -16 -3 -37 -12 -45 -20 -8 -7 -53 -15 -98
-18 -59 -4 -94 -12 -117 -26 -18 -11 -38 -20 -44 -20 -7 0 -31 -8 -54 -19 -23
-10 -61 -22 -84 -26 -24 -4 -43 -11 -43 -15 0 -5 -8 -9 -17 -8 -10 0 -46 -3
-81 -7 -46 -6 -66 -13 -73 -26 -6 -12 -21 -19 -39 -19 -18 0 -33 -7 -39 -19
-9 -15 -25 -19 -102 -23 -67 -3 -95 -8 -103 -20 -6 -8 -28 -18 -48 -22 -23 -4
-38 -13 -38 -21 0 -8 -3 -15 -7 -15 -5 0 -42 -5 -83 -11 -41 -6 -82 -12 -90
-13 -9 -1 -20 -5 -26 -9 -6 -3 -30 -9 -52 -13 -23 -4 -52 -15 -63 -25 -12 -11
-29 -19 -37 -19 -7 0 -28 -7 -45 -15 -18 -8 -72 -18 -120 -23 -53 -6 -95 -16
-105 -25 -9 -9 -30 -19 -47 -23 -16 -3 -37 -12 -45 -19 -26 -22 -59 -27 -176
-27 -122 0 -170 7 -194 27 -8 7 -37 18 -65 24 -27 7 -53 17 -56 23 -4 6 -49
15 -100 20 -61 7 -97 15 -102 24 -4 8 -23 14 -41 14 -23 0 -38 7 -47 20 -10
15 -29 22 -69 27 -30 3 -60 10 -67 15 -6 5 -39 13 -73 18 -34 5 -69 15 -79 23
-9 8 -29 18 -46 21 -16 4 -38 15 -48 24 -13 11 -44 17 -107 20 -64 3 -90 8
-90 17 0 7 -16 16 -35 19 -19 4 -40 13 -47 20 -14 13 -98 37 -146 41 -15 1
-39 7 -53 12 -14 6 -51 14 -82 18 -35 5 -57 12 -57 20 0 7 -18 15 -39 19 -21
3 -41 13 -45 21 -4 10 -20 15 -53 16 -70 0 -147 15 -151 28 -2 6 -12 11 -21
11 -10 0 -34 11 -53 24 -24 16 -57 26 -104 31 -38 4 -73 10 -79 15 -5 4 -33
13 -62 20 -29 6 -57 18 -64 26 -6 8 -17 14 -25 14 -7 0 -25 5 -41 12 -15 7
-32 13 -38 13 -5 1 -17 4 -25 8 -8 3 -46 8 -84 11 -46 4 -73 11 -78 20 -4 8
-26 17 -48 21 -22 4 -40 10 -40 15 0 10 -73 27 -153 36 -31 3 -59 10 -62 14
-3 4 -27 13 -54 20 -27 6 -52 18 -55 25 -2 7 -24 16 -47 20 -24 4 -50 11 -59
16 -8 4 -51 13 -95 18 -49 6 -83 15 -90 25 -6 8 -27 17 -47 21 -20 4 -39 13
-42 20 -3 8 -33 16 -83 20 -43 4 -90 13 -105 20 -15 7 -42 17 -60 20 -18 4
-44 16 -57 26 -14 11 -40 19 -65 19 -22 0 -50 7 -60 15 -11 8 -32 15 -47 15
-45 0 -133 23 -142 37 -4 7 -15 13 -24 13 -9 0 -24 7 -34 16 -11 10 -51 20
-101 26 -46 5 -87 14 -93 18 -5 4 -28 13 -51 19 -22 6 -51 20 -64 31 -15 13
-37 20 -63 20 -21 0 -53 6 -70 14 -18 8 -58 17 -91 19 -32 3 -65 12 -75 20 -9
8 -27 18 -41 22 -14 4 -36 14 -50 23 -13 8 -64 19 -114 23 -50 5 -92 13 -94
18 -2 6 -20 15 -40 22 -20 7 -42 18 -47 26 -6 8 -48 18 -103 25 -50 7 -92 15
-92 19 0 4 -21 11 -46 15 -25 3 -48 12 -51 20 -2 7 -30 18 -61 25 -32 6 -60
16 -63 21 -3 5 -46 13 -95 18 -55 6 -93 15 -99 23 -5 8 -27 17 -47 21 -21 4
-41 14 -46 22 -6 11 -35 18 -93 24 -83 9 -185 39 -198 57 -10 17 -123 51 -187
57 -35 3 -82 16 -112 31 -27 14 -55 25 -61 25 -6 0 -11 5 -11 11 0 7 -15 26
-32 43 -38 36 -58 69 -58 91 0 9 -6 18 -13 21 -8 3 -14 18 -15 35 0 16 -4 38
-7 49 -4 13 -1 22 8 26 8 3 18 20 21 37 7 37 47 77 96 97 19 8 38 18 41 23 3
4 48 12 99 17 68 6 96 13 102 24 5 9 21 16 35 16 14 0 40 9 57 19 17 10 51 22
76 26 25 4 50 11 55 15 6 4 37 11 70 15 34 4 78 18 101 31 22 13 47 24 55 24
8 0 28 7 44 16 17 9 68 19 114 24 61 5 86 12 93 24 5 9 19 16 32 16 13 0 34 9
47 19 16 12 50 22 93 26 38 4 81 14 95 21 14 8 37 14 51 14 38 0 70 11 70 24
0 16 109 47 215 60 59 8 161 49 167 67 2 6 47 15 101 21 53 7 97 15 97 19 0 5
17 11 38 15 20 4 47 15 59 24 13 10 44 21 70 25 25 4 56 13 67 20 12 7 56 16
98 20 45 4 82 12 88 20 6 8 25 17 41 20 16 4 43 13 59 22 43 21 140 28 333 25
154 -3 174 -5 222 -28z m-3675 -1542 c19 -12 48 -22 64 -22 16 0 34 -7 40 -16
8 -10 34 -18 76 -21 36 -3 81 -14 100 -24 19 -11 42 -19 51 -19 9 0 27 -8 40
-18 24 -19 73 -32 139 -36 19 -2 42 -6 50 -9 8 -3 32 -11 53 -17 20 -6 37 -15
37 -19 0 -4 24 -13 54 -20 30 -7 59 -18 65 -25 6 -7 44 -16 86 -19 42 -4 96
-16 120 -27 24 -11 53 -20 64 -20 11 0 24 -7 29 -16 6 -11 31 -19 73 -24 87
-10 202 -40 215 -56 6 -7 33 -18 60 -25 27 -6 54 -17 59 -24 6 -7 42 -14 84
-17 53 -3 75 -8 82 -20 5 -9 25 -19 45 -22 19 -4 50 -16 67 -27 22 -13 50 -19
87 -19 33 0 64 -6 77 -15 12 -8 49 -18 81 -21 46 -5 61 -11 65 -24 4 -14 19
-20 63 -25 33 -4 62 -12 65 -17 3 -5 35 -12 70 -15 41 -4 79 -14 105 -29 22
-13 46 -24 53 -24 7 0 19 -6 26 -14 8 -8 43 -17 77 -21 87 -9 118 -15 118 -25
0 -4 16 -11 35 -14 19 -4 41 -13 49 -22 8 -8 41 -20 73 -26 32 -6 60 -14 63
-18 3 -4 39 -12 80 -18 102 -14 113 -17 118 -30 2 -7 8 -12 13 -12 6 0 28 -9
51 -20 26 -12 74 -22 130 -26 59 -5 91 -11 95 -20 3 -7 25 -16 49 -20 26 -4
44 -12 44 -19 0 -16 22 -25 61 -25 17 0 42 -6 57 -14 23 -11 71 -21 145 -30
10 -1 22 -7 25 -12 10 -13 92 -52 122 -58 14 -3 56 -7 95 -10 38 -3 71 -10 73
-15 2 -6 8 -11 13 -11 4 0 32 -11 61 -23 29 -13 80 -29 113 -36 33 -7 82 -19
109 -27 26 -8 56 -14 66 -14 9 0 28 -8 41 -19 13 -10 41 -21 61 -25 20 -4 38
-11 40 -16 2 -6 38 -14 81 -20 70 -9 115 -24 187 -65 14 -8 39 -15 55 -15 55
-1 255 -56 255 -71 0 -3 28 -12 63 -19 34 -6 65 -17 68 -22 4 -6 42 -13 84
-16 51 -3 78 -9 82 -18 3 -7 21 -16 41 -20 21 -4 50 -16 65 -27 18 -12 45 -20
70 -20 23 1 60 -7 82 -17 22 -10 57 -21 77 -25 20 -4 39 -13 42 -20 2 -7 28
-18 57 -24 29 -7 57 -15 63 -20 6 -5 44 -11 84 -15 50 -4 83 -12 102 -26 15
-11 37 -20 47 -20 10 0 29 -7 41 -16 12 -8 57 -19 100 -23 42 -4 91 -15 107
-23 17 -9 46 -18 67 -22 20 -4 38 -13 41 -20 3 -8 21 -17 39 -21 18 -4 36 -12
40 -18 3 -6 12 -12 20 -13 26 -4 68 -24 68 -32 0 -4 15 -13 34 -20 23 -9 38
-23 47 -45 7 -17 20 -37 29 -44 13 -10 15 -199 18 -1790 4 -1825 2 -1913 -34
-1913 -8 0 -14 -9 -14 -19 0 -11 -9 -23 -20 -26 -11 -3 -20 -13 -20 -21 0 -8
-9 -14 -20 -14 -10 0 -23 -7 -28 -16 -20 -35 -225 -41 -253 -8 -6 8 -22 14
-35 14 -28 0 -76 20 -86 36 -4 6 -44 15 -88 18 -44 4 -82 11 -85 16 -3 4 -29
14 -57 20 -29 7 -57 19 -61 26 -4 8 -14 14 -22 14 -7 0 -26 5 -42 11 -31 13
-47 16 -113 24 -92 11 -110 16 -110 29 0 8 -17 16 -40 20 -21 3 -43 13 -48 21
-6 11 -31 18 -83 22 -41 3 -83 12 -94 19 -11 6 -39 15 -62 19 -24 4 -46 12
-50 19 -5 7 -33 19 -63 26 -30 7 -60 17 -66 21 -6 5 -44 13 -83 18 -40 5 -77
14 -84 19 -7 6 -35 16 -62 23 -28 6 -55 18 -62 26 -7 10 -37 17 -80 20 -37 3
-86 14 -109 24 -22 10 -47 19 -56 19 -8 0 -26 8 -39 18 -13 11 -46 22 -73 26
-28 3 -52 10 -56 15 -3 5 -30 12 -60 15 -85 10 -110 16 -110 31 0 7 -15 16
-34 19 -19 4 -48 14 -65 22 -17 9 -66 18 -109 21 -42 4 -81 12 -87 19 -5 6
-34 18 -62 25 -29 7 -53 16 -53 20 0 12 -70 29 -117 29 -24 0 -43 4 -43 9 0 5
-29 14 -64 21 -36 7 -67 18 -70 25 -3 8 -22 17 -42 21 -20 4 -49 13 -63 20
-14 8 -45 14 -69 14 -23 0 -59 9 -79 20 -21 11 -45 20 -53 20 -8 0 -30 9 -49
21 -19 11 -60 23 -90 26 -31 3 -67 11 -81 18 -14 7 -50 15 -81 19 -36 5 -61
14 -72 26 -9 11 -25 20 -36 20 -10 0 -35 7 -55 15 -20 9 -71 20 -114 25 -42 6
-78 14 -80 20 -2 5 -19 12 -39 16 -19 4 -37 12 -39 19 -3 7 -35 18 -72 25 -37
6 -76 15 -87 20 -11 5 -44 14 -73 20 -28 7 -55 18 -60 25 -4 7 -34 18 -66 25
-33 7 -67 16 -75 20 -9 5 -54 13 -101 19 -55 7 -87 16 -93 26 -4 8 -25 18 -47
21 -21 4 -41 12 -44 19 -3 8 -38 15 -96 19 -60 5 -93 12 -96 21 -3 7 -23 15
-44 19 -22 3 -43 13 -48 22 -5 9 -32 19 -63 24 -77 13 -179 39 -214 55 -16 8
-42 17 -58 21 -15 3 -31 12 -35 20 -5 9 -41 17 -101 23 -59 6 -100 16 -110 26
-10 8 -30 15 -44 15 -15 0 -35 9 -44 20 -10 11 -28 20 -40 20 -20 0 -116 20
-245 52 -21 5 -38 13 -38 18 0 5 -19 14 -42 21 -24 6 -45 15 -48 20 -3 4 -47
12 -98 17 -53 6 -100 16 -110 24 -30 24 -105 57 -147 63 -74 10 -180 38 -213
57 -18 10 -39 18 -47 18 -7 0 -27 11 -43 25 -17 14 -32 25 -36 25 -8 0 -96 63
-96 69 0 3 -11 19 -25 35 -14 16 -25 41 -25 56 0 15 -7 33 -15 40 -13 11 -15
221 -15 1779 0 1527 2 1770 15 1794 8 15 17 43 21 62 3 20 12 35 20 35 8 0 14
7 14 15 0 8 20 24 44 35 25 11 48 25 52 31 4 8 37 10 98 7 71 -3 99 -9 126
-26z m10706 -1102 c23 0 114 -82 114 -102 0 -6 8 -17 18 -24 14 -10 17 -28 17
-108 0 -84 -3 -97 -23 -118 -12 -14 -22 -32 -22 -41 0 -9 -4 -17 -9 -17 -5 0
-20 -9 -33 -20 -43 -37 -96 -68 -128 -75 -17 -4 -34 -13 -36 -20 -3 -8 -23
-16 -44 -20 -21 -4 -41 -12 -43 -19 -4 -9 -34 -16 -81 -21 -42 -3 -80 -12 -86
-20 -6 -7 -26 -16 -45 -19 -19 -4 -35 -13 -35 -20 0 -8 -17 -16 -41 -20 -23
-4 -61 -15 -85 -26 -23 -11 -51 -20 -61 -20 -10 0 -29 -9 -43 -20 -14 -11 -33
-20 -42 -20 -10 0 -22 -9 -28 -19 -5 -11 -20 -23 -32 -27 -28 -8 -88 -70 -88
-89 0 -8 -9 -19 -20 -25 -11 -6 -20 -18 -20 -28 0 -9 -9 -23 -20 -30 -13 -8
-20 -23 -20 -42 0 -23 -4 -30 -20 -30 -13 0 -20 -7 -20 -19 0 -10 -8 -29 -19
-42 -10 -13 -21 -34 -25 -46 -4 -13 -12 -23 -17 -23 -5 0 -9 -5 -9 -10 0 -10
-14 -40 -54 -117 -10 -18 -21 -33 -26 -33 -4 0 -11 -17 -15 -37 -4 -21 -15
-46 -26 -56 -10 -10 -19 -29 -19 -43 0 -13 -6 -27 -14 -30 -7 -3 -19 -23 -26
-45 -7 -21 -17 -39 -21 -39 -9 0 -69 -124 -69 -144 0 -8 -9 -20 -20 -26 -11
-6 -20 -16 -20 -21 0 -10 -36 -86 -76 -161 -8 -16 -19 -28 -24 -28 -5 0 -12
-17 -16 -37 -3 -21 -11 -42 -18 -48 -6 -5 -19 -27 -28 -47 -10 -21 -22 -38
-28 -38 -5 0 -10 -6 -10 -14 0 -7 -12 -30 -26 -51 -14 -21 -26 -51 -26 -66 -1
-17 -7 -29 -14 -29 -7 0 -27 -28 -45 -62 -64 -129 -73 -143 -85 -151 -7 -4
-16 -24 -20 -43 -4 -20 -13 -38 -20 -41 -7 -3 -16 -20 -20 -38 -3 -19 -12 -36
-19 -39 -8 -3 -17 -21 -21 -41 -3 -20 -13 -39 -20 -42 -8 -3 -17 -23 -20 -44
-5 -29 -11 -39 -25 -39 -14 0 -19 -7 -19 -25 0 -14 -9 -33 -20 -42 -11 -10
-20 -21 -20 -25 0 -12 -41 -101 -55 -118 -6 -8 -18 -31 -25 -50 -8 -19 -19
-38 -26 -43 -7 -4 -15 -21 -19 -38 -4 -17 -13 -33 -20 -35 -8 -3 -16 -23 -20
-44 -4 -25 -13 -40 -24 -43 -11 -3 -21 -18 -25 -40 -4 -19 -13 -37 -20 -40 -7
-3 -16 -21 -20 -40 -4 -19 -13 -38 -21 -41 -8 -3 -15 -14 -15 -24 0 -11 -7
-26 -16 -33 -15 -13 -74 -130 -74 -148 0 -5 -6 -11 -14 -14 -8 -3 -17 -19 -21
-36 -4 -17 -12 -34 -18 -38 -7 -5 -20 -25 -29 -45 -10 -21 -22 -38 -27 -38 -5
0 -12 -15 -15 -34 -4 -19 -13 -39 -21 -46 -8 -7 -15 -19 -15 -26 0 -8 -15 -37
-33 -66 -18 -29 -39 -66 -46 -83 -7 -16 -18 -39 -24 -50 -6 -11 -16 -30 -23
-43 -6 -13 -19 -28 -28 -35 -9 -7 -17 -25 -18 -40 -1 -16 -10 -33 -19 -38 -9
-4 -20 -25 -23 -44 -4 -20 -14 -39 -22 -42 -7 -3 -14 -12 -14 -20 0 -8 -9 -33
-19 -56 -17 -37 -28 -97 -30 -164 -1 -12 -7 -28 -13 -35 -7 -7 -21 -29 -31
-48 -39 -76 -49 -90 -60 -90 -7 0 -20 -9 -29 -20 -10 -11 -30 -23 -45 -26 -15
-4 -31 -12 -35 -17 -10 -16 -108 -17 -114 -2 -3 7 -22 16 -42 20 -48 9 -123
90 -107 115 3 5 -1 10 -7 12 -10 4 -13 367 -13 1794 l0 1789 25 63 c14 34 31
62 37 62 7 0 13 9 13 20 0 18 10 25 32 21 4 0 12 8 18 18 5 11 24 22 41 26 17
4 33 13 35 20 3 7 21 16 40 20 19 3 37 12 40 20 3 7 21 16 39 19 19 4 41 14
50 22 10 10 48 19 112 25 66 6 100 13 105 23 5 8 23 18 41 21 17 4 39 13 47
20 8 7 44 15 79 18 35 3 68 10 73 15 6 6 17 8 24 5 8 -3 20 -1 27 5 6 5 27 13
46 17 19 4 48 16 65 26 17 10 46 19 64 19 19 0 32 5 32 13 0 6 10 13 23 14 12
1 40 4 62 7 22 3 49 5 61 5 12 1 31 10 43 20 12 11 40 22 61 26 21 4 41 12 43
19 4 9 35 16 86 20 45 4 81 11 81 16 0 4 18 11 40 15 22 4 50 15 62 24 13 10
41 21 63 25 22 5 44 11 50 14 11 7 12 7 115 22 45 6 78 16 82 25 5 8 25 17 46
21 20 3 47 13 60 20 12 8 55 19 95 24 40 5 86 16 102 24 17 9 40 16 52 16 12
0 30 8 40 19 11 11 40 22 71 26 30 4 66 13 80 21 15 8 46 14 68 14 25 0 51 7
65 19 13 10 40 21 60 25 21 4 42 13 48 20 7 8 47 16 108 20 73 6 103 12 121
27 14 10 34 19 44 19 11 0 32 9 47 19 32 23 82 30 165 25 32 -2 69 -4 82 -4z
m3104 -224 c8 -7 30 -18 48 -26 17 -7 32 -19 32 -26 0 -8 5 -14 11 -14 6 0 27
-17 47 -38 20 -21 45 -41 55 -45 9 -3 17 -11 17 -17 0 -7 18 -29 40 -51 24
-24 42 -52 46 -74 3 -19 10 -35 14 -35 15 0 18 -39 4 -57 -7 -10 -14 -33 -14
-51 0 -37 -16 -73 -36 -85 -8 -4 -14 -14 -14 -21 0 -8 -9 -16 -21 -19 -11 -3
-23 -14 -26 -25 -3 -13 -17 -22 -39 -26 -18 -4 -37 -13 -42 -22 -5 -8 -30 -17
-63 -21 -29 -3 -59 -9 -64 -14 -6 -4 -43 -15 -83 -24 -39 -9 -72 -21 -72 -25
0 -5 -19 -15 -42 -22 -24 -6 -46 -16 -50 -22 -3 -5 -42 -12 -85 -15 -45 -4
-89 -13 -103 -23 -14 -8 -38 -19 -54 -22 -17 -4 -35 -14 -40 -21 -6 -8 -37
-17 -70 -20 -32 -3 -77 -12 -100 -20 -22 -8 -51 -15 -62 -15 -12 0 -32 -8 -45
-19 -13 -10 -41 -21 -62 -25 -21 -4 -41 -14 -44 -22 -3 -9 -21 -14 -57 -14
-71 -1 -135 -15 -149 -33 -7 -8 -28 -18 -49 -21 -20 -4 -39 -13 -42 -21 -3 -9
-9 -14 -13 -13 -19 4 -148 -15 -154 -23 -3 -5 -26 -13 -52 -18 -26 -5 -55 -16
-65 -24 -9 -8 -30 -19 -47 -23 -16 -4 -34 -9 -40 -12 -5 -4 -16 -7 -25 -9
-102 -17 -163 -33 -178 -47 -10 -9 -30 -16 -44 -16 -14 0 -31 -6 -37 -14 -15
-17 -41 -23 -136 -31 -44 -4 -72 -11 -77 -19 -5 -8 -26 -17 -48 -21 -25 -4
-40 -12 -40 -21 0 -9 -11 -14 -29 -14 -16 0 -45 -7 -64 -15 -20 -8 -79 -21
-132 -29 -53 -8 -103 -20 -111 -27 -10 -8 -18 -8 -27 0 -8 6 -43 17 -80 24
-36 8 -73 22 -82 31 -9 9 -23 16 -31 16 -8 0 -17 7 -20 15 -3 8 -14 17 -25 20
-10 4 -19 13 -19 22 0 8 -9 17 -20 20 -11 3 -20 10 -20 16 0 5 -10 20 -22 32
-48 48 -62 74 -72 127 -4 20 -11 38 -17 40 -17 6 -14 100 4 113 8 6 18 27 22
46 6 34 18 44 94 89 14 8 29 19 32 23 3 5 50 12 105 18 54 5 100 13 102 19 2
5 8 10 14 10 5 0 33 11 60 25 29 14 78 28 112 32 34 3 64 10 67 16 4 5 28 13
54 18 27 5 56 16 65 24 9 8 32 18 51 21 19 4 46 13 61 20 15 8 59 18 98 24 40
6 81 17 93 25 12 8 31 15 43 15 12 0 27 6 33 14 13 15 38 23 101 30 76 9 138
29 211 67 20 11 49 19 63 19 15 0 37 7 50 15 12 8 51 18 86 22 41 4 70 13 82
25 10 10 27 18 38 18 11 0 28 9 37 20 13 14 30 20 61 20 44 0 129 17 147 30 6
4 24 10 40 14 17 4 37 14 46 22 10 9 45 19 79 24 34 5 67 13 74 19 7 6 38 13
70 17 32 4 60 13 63 19 2 7 20 16 38 19 19 4 38 13 43 21 5 11 38 18 106 24
55 6 102 14 105 19 3 6 26 15 51 22 25 7 48 16 51 21 15 25 160 28 189 5z
m238 -1275 c41 -1 52 -4 52 -17 0 -9 9 -18 19 -21 15 -4 21 -17 26 -58 9 -69
-1 -163 -18 -184 -8 -9 -20 -33 -28 -53 -7 -21 -17 -38 -21 -38 -4 0 -8 -7 -8
-17 0 -9 -11 -31 -25 -49 -14 -18 -25 -38 -25 -44 0 -6 -6 -13 -14 -16 -7 -3
-21 -23 -31 -45 -10 -21 -22 -39 -27 -39 -4 0 -8 -7 -8 -15 0 -8 -11 -31 -25
-51 -14 -20 -25 -43 -25 -50 0 -8 -6 -14 -12 -14 -7 0 -21 -17 -31 -38 -29
-61 -49 -95 -69 -116 -10 -11 -18 -26 -18 -33 0 -8 -7 -16 -15 -19 -8 -4 -15
-14 -15 -23 0 -9 -9 -27 -20 -41 -11 -14 -20 -32 -20 -40 0 -8 -12 -26 -25
-39 -14 -13 -25 -32 -25 -42 0 -10 -6 -19 -14 -19 -8 0 -20 -17 -27 -37 -6
-21 -18 -42 -25 -46 -8 -4 -14 -17 -14 -27 0 -11 -6 -20 -13 -20 -7 0 -19 -16
-26 -36 -7 -19 -19 -38 -27 -41 -8 -3 -14 -12 -14 -20 0 -18 -60 -113 -71
-113 -4 0 -10 -18 -14 -40 -4 -23 -12 -40 -20 -40 -7 0 -20 -17 -28 -37 -8
-21 -29 -53 -46 -72 -17 -19 -31 -43 -31 -53 0 -10 -9 -26 -20 -35 -11 -10
-20 -22 -20 -29 0 -6 -9 -19 -19 -28 -11 -10 -23 -31 -26 -46 -3 -16 -13 -31
-21 -34 -8 -3 -14 -10 -14 -17 0 -6 -11 -24 -25 -41 -14 -16 -25 -38 -25 -49
0 -10 -5 -19 -10 -19 -6 0 -17 -18 -26 -39 -8 -22 -22 -42 -30 -45 -8 -3 -14
-12 -14 -20 0 -8 -9 -18 -20 -21 -11 -3 -20 -12 -20 -18 0 -7 -8 -20 -17 -29
-23 -21 -40 -38 -61 -60 -9 -10 -22 -18 -29 -18 -7 0 -17 -9 -23 -20 -6 -11
-17 -20 -25 -20 -8 0 -19 -8 -24 -17 -6 -10 -11 -14 -11 -9 0 5 -6 3 -14 -3
-8 -6 -37 -14 -66 -18 -28 -3 -57 -11 -63 -18 -7 -6 -38 -14 -70 -18 -32 -3
-68 -12 -80 -20 -12 -8 -38 -18 -57 -22 -19 -4 -44 -13 -55 -21 -11 -7 -47
-15 -80 -19 -77 -9 -97 -14 -89 -26 3 -5 2 -8 -3 -7 -20 6 -97 -14 -121 -32
-15 -10 -53 -21 -86 -25 -32 -3 -65 -13 -73 -21 -8 -8 -33 -14 -56 -14 -24 0
-53 -7 -66 -16 -13 -9 -42 -21 -64 -26 -23 -5 -49 -16 -58 -24 -10 -9 -46 -17
-90 -21 -43 -3 -87 -13 -104 -23 -16 -10 -46 -21 -65 -25 -19 -4 -38 -12 -41
-16 -3 -5 -33 -14 -67 -20 -34 -6 -62 -15 -62 -21 0 -5 -4 -7 -9 -4 -13 8
-133 -23 -151 -39 -16 -14 -104 -39 -207 -60 -34 -7 -69 -20 -78 -29 -9 -9
-23 -16 -31 -16 -8 0 -17 -7 -20 -15 -3 -8 -21 -17 -40 -21 -20 -4 -34 -12
-34 -20 0 -8 -11 -19 -24 -23 -13 -5 -26 -17 -29 -25 -4 -9 -13 -16 -22 -16
-8 0 -15 -7 -15 -16 0 -9 -9 -18 -20 -21 -11 -3 -20 -14 -20 -25 0 -11 -9 -22
-20 -25 -11 -3 -20 -13 -20 -22 0 -9 -8 -24 -19 -33 -10 -8 -21 -36 -25 -62
-5 -29 -12 -46 -21 -46 -8 0 -16 -17 -20 -41 -4 -22 -13 -43 -20 -45 -7 -3
-16 -22 -20 -42 -4 -20 -12 -40 -18 -44 -7 -4 -12 -11 -13 -15 -4 -55 -19
-117 -33 -135 -10 -13 -21 -34 -25 -48 -8 -29 -78 -83 -122 -94 -16 -4 -32
-13 -36 -19 -12 -19 -149 -15 -178 6 -13 9 -37 17 -52 17 -18 0 -28 5 -28 15
0 8 -9 29 -20 47 -29 48 -29 214 0 251 11 14 20 30 20 36 0 7 9 24 20 39 11
15 22 37 24 49 3 13 14 32 25 45 12 12 21 30 21 40 0 10 6 21 14 24 7 3 19 23
26 45 7 21 16 39 20 39 4 0 12 18 19 39 6 21 17 41 25 44 8 3 17 20 21 37 4
17 13 34 20 36 7 3 15 18 18 33 3 16 13 36 21 44 20 19 38 66 31 77 -3 5 4 14
15 20 11 6 20 17 20 24 0 8 7 16 14 19 8 3 18 22 22 42 3 19 12 39 19 43 7 4
18 24 24 45 7 20 19 37 26 37 8 0 16 17 20 40 4 22 12 40 20 40 7 0 15 13 18
29 3 16 12 35 19 42 7 8 27 41 43 74 17 33 38 71 48 84 9 13 17 32 17 41 0 10
7 20 14 23 8 3 18 22 22 42 3 19 12 39 18 43 7 4 18 23 26 42 8 19 20 38 27
43 6 4 15 23 19 42 3 19 12 35 19 35 7 0 16 16 19 35 4 19 13 38 20 42 7 5 19
24 25 45 7 20 18 39 26 42 8 3 15 14 15 24 0 11 9 31 20 45 11 14 20 30 20 37
0 7 9 23 20 37 11 14 20 35 20 45 0 11 9 22 19 25 13 3 22 17 26 44 4 21 12
39 18 39 7 1 27 31 45 68 18 37 44 85 57 107 30 49 45 82 45 100 0 8 6 18 13
22 6 4 19 22 27 38 8 17 21 34 27 38 7 4 13 16 13 25 0 10 4 22 9 27 12 13 71
127 71 137 0 16 135 148 152 148 9 0 19 9 23 19 5 15 18 21 63 26 31 3 70 12
85 20 16 8 41 15 56 15 15 0 38 9 51 20 13 11 35 23 49 26 14 3 42 12 61 19
19 8 64 17 99 21 36 3 78 15 95 25 17 10 39 19 48 19 9 0 21 7 26 16 6 10 32
18 78 24 39 5 83 14 99 21 17 7 43 14 59 16 16 2 37 9 45 17 9 8 39 20 66 27
28 6 55 16 61 20 6 5 44 13 84 19 41 6 81 17 90 25 9 8 32 18 51 21 19 4 41
12 49 19 12 10 113 34 165 40 6 1 23 6 38 13 16 7 37 12 47 12 11 0 27 8 37
19 10 10 36 21 57 24 22 4 42 11 46 17 3 5 42 15 86 20 43 6 81 15 82 20 2 6
11 10 19 10 8 0 37 11 64 25 29 14 81 28 125 34 41 5 80 14 88 20 7 6 35 15
63 21 28 6 54 18 57 26 3 9 20 14 44 14 21 0 43 5 50 12 7 7 12 8 12 4 0 -5 7
-3 16 5 14 12 137 28 174 23 8 -2 39 -3 68 -3z m-3776 -229 c8 -6 29 -15 47
-18 18 -4 35 -13 38 -20 3 -8 11 -14 18 -14 7 0 26 -13 42 -30 15 -16 31 -30
35 -30 10 0 58 -49 58 -59 0 -5 22 -31 50 -58 27 -26 50 -53 50 -60 0 -6 10
-28 21 -48 19 -32 21 -45 14 -120 -4 -53 -12 -88 -21 -96 -8 -6 -14 -17 -14
-24 0 -7 -11 -29 -25 -49 -14 -20 -25 -46 -25 -57 0 -10 -9 -27 -20 -36 -11
-10 -20 -23 -20 -31 0 -7 -11 -28 -25 -46 -14 -18 -25 -38 -25 -43 0 -6 -7
-16 -15 -23 -8 -7 -17 -27 -21 -46 -3 -19 -12 -34 -19 -34 -7 0 -16 -16 -19
-36 -4 -19 -13 -37 -20 -40 -8 -3 -16 -18 -20 -34 -3 -17 -15 -38 -26 -47 -11
-10 -20 -28 -20 -40 0 -13 -9 -31 -20 -40 -11 -10 -20 -24 -20 -33 0 -8 -9
-26 -20 -40 -11 -14 -20 -30 -20 -37 0 -7 -11 -29 -25 -49 -14 -20 -25 -43
-25 -50 0 -8 -4 -14 -10 -14 -5 0 -10 -5 -10 -11 0 -18 -71 -159 -80 -159 -5
0 -15 -18 -21 -40 -7 -22 -16 -40 -20 -40 -4 0 -10 -14 -14 -30 -4 -17 -12
-36 -18 -43 -7 -6 -20 -29 -29 -49 -10 -21 -22 -38 -27 -38 -5 0 -12 -18 -16
-39 -4 -22 -13 -42 -20 -45 -8 -3 -17 -21 -21 -41 -3 -19 -15 -40 -25 -46 -11
-5 -19 -18 -19 -28 0 -10 -9 -28 -20 -41 -11 -13 -20 -31 -20 -42 0 -10 -9
-26 -20 -35 -11 -10 -20 -25 -20 -35 0 -9 -6 -21 -14 -25 -7 -4 -19 -25 -25
-45 -7 -21 -18 -38 -25 -38 -8 0 -16 -17 -20 -39 -3 -21 -12 -41 -20 -44 -8
-3 -17 -20 -21 -37 -4 -17 -13 -34 -20 -36 -7 -3 -15 -18 -19 -34 -3 -17 -15
-38 -26 -47 -11 -10 -20 -22 -20 -28 0 -17 -24 -65 -32 -65 -5 0 -8 -9 -8 -20
0 -10 -6 -23 -14 -27 -7 -4 -19 -25 -25 -45 -7 -21 -19 -38 -26 -38 -8 0 -16
-16 -20 -39 -4 -22 -12 -42 -20 -45 -7 -2 -16 -19 -20 -36 -4 -17 -13 -34 -20
-36 -7 -3 -16 -21 -19 -40 -4 -18 -15 -38 -25 -44 -10 -5 -22 -25 -25 -44 -4
-19 -13 -37 -21 -40 -8 -3 -15 -16 -15 -29 0 -13 -9 -32 -20 -42 -11 -10 -20
-24 -20 -31 0 -7 -11 -30 -25 -50 -14 -20 -25 -43 -25 -50 0 -8 -7 -14 -15
-14 -8 0 -15 -9 -15 -19 0 -19 -95 -111 -114 -111 -5 0 -15 -8 -22 -17 -17
-24 -135 -24 -161 -1 -10 9 -30 20 -46 23 -15 4 -32 16 -38 26 -5 11 -16 19
-23 19 -8 0 -16 9 -19 20 -3 11 -12 20 -21 20 -9 0 -16 5 -16 11 0 6 -20 31
-45 56 -25 24 -45 49 -45 54 0 5 -7 9 -15 9 -8 0 -17 14 -21 36 -4 22 -14 38
-24 41 -20 5 -24 44 -21 183 1 63 6 98 15 105 7 6 16 22 19 37 4 15 18 44 32
64 14 20 25 45 25 54 0 10 7 20 14 23 8 3 18 22 22 41 3 20 12 36 19 36 7 0
16 15 19 33 3 18 15 40 26 50 18 15 25 34 21 63 -1 7 7 14 17 17 13 3 22 17
26 40 4 19 13 38 21 41 8 3 15 14 15 25 0 11 5 23 10 26 6 4 8 11 5 16 -4 5
-2 9 3 9 12 0 61 76 68 107 4 13 13 27 20 30 7 3 16 20 20 39 3 19 11 38 18
42 6 4 19 23 29 42 9 19 31 60 47 90 17 30 30 60 30 68 0 7 7 15 15 18 8 3 19
21 25 39 6 18 17 36 24 38 8 3 17 22 20 42 4 20 13 38 21 41 7 3 16 21 20 40
3 19 12 37 20 40 7 3 16 23 20 45 4 23 12 39 20 39 8 0 17 18 22 43 5 25 14
42 23 42 7 0 17 14 22 32 5 18 13 35 18 38 5 3 18 25 29 48 26 53 43 80 57 89
7 4 15 23 18 43 4 19 13 38 19 42 7 5 19 24 27 43 8 19 20 39 27 43 7 4 13 16
13 26 0 10 9 26 20 36 11 10 20 24 20 31 0 7 11 30 25 50 14 20 25 42 25 49 0
7 6 15 14 18 7 3 16 21 20 40 4 19 13 38 21 41 8 3 17 21 20 40 5 22 14 36 26
39 12 3 19 14 19 30 0 13 7 30 15 37 8 7 19 29 25 50 6 21 17 41 25 44 8 3 15
14 15 25 0 11 4 22 10 26 10 6 65 117 75 153 3 12 13 22 20 22 8 0 17 15 21
36 4 19 13 38 20 41 7 3 16 20 20 39 4 20 13 36 25 39 10 4 19 11 19 17 0 22
65 68 102 74 21 4 38 10 38 15 0 19 89 21 112 1z m4711 -2148 c20 -3 37 -9 37
-14 0 -4 26 -15 58 -25 31 -10 60 -22 63 -27 4 -6 41 -14 84 -19 43 -4 81 -13
84 -18 3 -5 24 -12 46 -16 22 -4 52 -16 68 -26 15 -11 51 -23 80 -26 28 -3 55
-10 58 -15 3 -5 30 -11 60 -14 30 -4 69 -15 87 -25 18 -11 41 -19 50 -19 10 0
34 -9 53 -19 20 -11 65 -23 100 -26 35 -4 76 -13 91 -20 15 -7 42 -16 59 -20
17 -4 46 -15 63 -25 17 -10 53 -20 80 -24 28 -3 52 -10 56 -15 3 -5 42 -15 88
-22 48 -8 82 -18 82 -25 0 -6 17 -14 39 -18 21 -3 44 -13 51 -21 7 -8 27 -15
45 -15 73 0 155 -13 155 -25 0 -7 16 -15 36 -18 20 -3 45 -13 54 -22 11 -10
49 -20 87 -25 38 -5 82 -16 98 -24 17 -9 42 -16 57 -16 15 0 33 -6 41 -14 8
-8 31 -18 51 -21 20 -4 44 -14 52 -23 10 -9 46 -18 97 -23 45 -4 96 -14 112
-23 17 -9 36 -16 44 -16 7 0 24 -10 37 -22 12 -13 45 -43 73 -68 28 -24 51
-50 51 -57 0 -6 7 -16 16 -21 23 -13 16 -141 -9 -166 -9 -10 -17 -24 -17 -32
0 -8 -7 -14 -15 -14 -9 0 -18 -7 -21 -15 -3 -8 -22 -19 -42 -26 -21 -7 -40
-17 -44 -22 -3 -6 -15 -11 -25 -12 -156 -14 -184 -19 -194 -31 -6 -8 -17 -14
-23 -14 -6 0 -32 -11 -58 -25 -33 -17 -63 -25 -98 -25 -28 0 -63 -6 -78 -14
-15 -8 -46 -18 -67 -22 -22 -4 -50 -15 -63 -25 -12 -9 -42 -20 -65 -24 -23 -4
-54 -14 -69 -21 -15 -8 -50 -14 -78 -14 -35 0 -52 -4 -56 -14 -3 -8 -31 -20
-62 -27 -31 -6 -61 -18 -67 -26 -7 -10 -36 -17 -81 -20 -38 -3 -76 -11 -84
-18 -8 -7 -37 -15 -65 -19 -27 -3 -53 -13 -57 -20 -5 -8 -34 -20 -66 -27 -31
-7 -60 -16 -63 -21 -3 -4 -36 -12 -75 -17 -38 -5 -82 -16 -99 -25 -16 -9 -38
-16 -47 -16 -9 0 -21 -7 -25 -15 -6 -10 -38 -19 -98 -26 -50 -6 -108 -20 -131
-30 -22 -10 -45 -19 -51 -19 -6 0 -13 -6 -16 -14 -4 -9 -26 -17 -54 -21 -26
-3 -57 -10 -68 -16 -11 -5 -51 -13 -90 -19 -38 -6 -87 -20 -108 -30 -21 -11
-46 -20 -57 -20 -11 0 -27 -8 -37 -19 -14 -15 -38 -20 -113 -25 -52 -3 -117
-13 -143 -22 -46 -15 -75 -16 -169 0 -15 2 -32 7 -38 11 -6 4 -52 10 -102 15
-62 6 -94 13 -100 23 -4 8 -23 18 -42 21 -19 4 -39 13 -45 20 -7 8 -43 17 -84
21 -40 4 -78 12 -85 17 -7 6 -33 15 -59 19 -25 5 -54 15 -62 23 -9 8 -32 17
-51 21 -19 4 -44 13 -55 20 -11 8 -55 17 -98 20 -51 5 -80 12 -84 21 -2 7 -25
16 -50 20 -24 3 -52 14 -61 24 -12 12 -38 19 -89 22 -40 3 -78 10 -85 15 -7 6
-29 14 -48 18 -19 4 -49 15 -66 25 -17 10 -47 21 -65 25 -19 4 -39 11 -45 16
-6 5 -46 14 -89 19 -45 6 -91 18 -110 30 -18 11 -44 20 -58 20 -14 0 -30 7
-35 17 -7 12 -31 18 -95 23 -47 4 -92 11 -99 17 -7 6 -29 14 -48 18 -19 4 -43
16 -53 26 -10 11 -29 19 -43 19 -14 0 -40 7 -57 15 -18 8 -61 19 -97 24 -35 6
-83 19 -105 30 -89 43 -118 52 -206 60 -68 6 -94 13 -101 25 -5 9 -18 16 -29
16 -11 0 -22 7 -25 15 -4 8 -10 12 -15 9 -5 -3 -9 -1 -9 5 0 6 -11 13 -24 17
-19 4 -26 15 -31 44 -4 21 -13 41 -21 44 -18 7 -18 62 0 69 7 3 16 21 20 41 4
20 15 40 26 46 11 6 20 17 20 24 0 8 9 16 20 19 11 3 20 12 20 21 0 9 5 16 11
16 6 0 25 11 43 25 18 14 39 25 46 25 7 0 18 7 24 15 7 9 43 18 102 25 50 5
104 17 120 25 16 8 38 15 50 15 11 0 29 9 39 20 10 11 28 20 41 20 12 0 35 5
51 11 32 13 37 14 112 25 30 4 70 18 89 31 19 12 50 23 68 23 20 0 37 6 42 16
6 11 30 17 83 21 41 3 77 10 80 15 3 5 10 8 15 7 5 -1 22 3 37 9 16 7 37 12
48 12 11 0 22 7 25 14 5 13 78 35 134 41 8 1 31 6 50 12 19 6 52 14 73 18 23
4 37 11 37 20 0 10 10 15 30 15 17 0 49 9 73 19 23 11 74 23 114 26 46 4 73
12 77 20 3 8 22 17 43 21 21 3 46 13 55 22 10 8 46 18 80 21 35 4 72 12 83 18
11 6 48 17 82 24 34 6 64 17 67 24 2 7 22 16 43 20 21 4 41 11 44 17 3 5 46
13 94 17 58 6 92 14 99 23 6 8 28 17 50 21 21 3 46 13 55 21 32 28 323 42 454
20z m-3644 -1558 c9 -7 28 -16 43 -20 15 -3 33 -12 41 -20 7 -8 40 -17 73 -20
122 -13 144 -18 139 -26 -3 -5 14 -14 37 -20 24 -7 50 -18 58 -26 9 -7 47 -16
85 -19 38 -2 71 -8 74 -13 3 -5 32 -14 64 -21 32 -7 61 -19 63 -26 3 -7 24
-16 46 -19 22 -4 50 -13 61 -21 12 -8 36 -15 54 -15 43 0 133 -20 133 -29 0
-5 25 -13 56 -20 31 -6 62 -17 68 -25 6 -8 35 -16 66 -19 30 -2 69 -10 85 -17
17 -7 43 -14 59 -16 16 -2 45 -13 65 -23 46 -25 162 -58 225 -65 27 -3 63 -15
81 -26 18 -11 44 -20 58 -20 14 0 30 -7 35 -17 7 -12 31 -18 93 -23 46 -4 98
-15 114 -24 17 -9 38 -16 48 -16 11 0 30 -8 43 -19 13 -10 45 -22 71 -26 27
-4 62 -13 80 -20 17 -7 61 -16 98 -20 39 -5 69 -13 72 -20 2 -7 16 -16 31 -20
15 -4 34 -13 43 -21 9 -8 47 -17 85 -21 38 -3 86 -14 106 -24 21 -11 48 -19
62 -19 14 0 33 -8 43 -19 11 -11 38 -20 67 -24 27 -2 51 -10 55 -15 4 -6 26
-14 50 -18 23 -4 55 -17 71 -30 15 -13 32 -24 38 -24 5 0 12 -8 16 -17 3 -10
14 -32 24 -48 33 -54 57 -347 33 -408 -6 -16 -11 -45 -11 -65 0 -52 -10 -82
-26 -82 -8 0 -14 -9 -14 -20 0 -11 -8 -24 -17 -27 -10 -4 -21 -12 -26 -19 -4
-7 -28 -16 -52 -20 -25 -3 -48 -10 -51 -15 -7 -12 -51 -11 -59 1 -3 5 -33 12
-66 16 -33 4 -63 13 -67 20 -4 8 -31 18 -59 24 -29 5 -60 14 -70 19 -10 5 -49
14 -88 20 -38 6 -71 15 -73 21 -2 5 -11 10 -20 10 -9 0 -32 9 -51 21 -21 12
-65 24 -120 30 -47 6 -98 17 -113 25 -14 8 -33 14 -42 14 -9 0 -30 10 -46 22
-27 19 -112 40 -167 40 -13 0 -23 4 -23 8 0 5 -20 12 -45 16 -25 3 -55 14 -68
24 -12 9 -39 20 -59 24 -20 4 -38 11 -40 17 -2 5 -40 14 -85 18 -46 5 -93 15
-106 24 -13 9 -42 19 -63 23 -21 3 -46 13 -55 21 -15 12 -97 31 -164 36 -11 1
-23 6 -26 10 -3 5 -25 11 -48 14 -24 3 -45 12 -48 19 -2 7 -28 18 -56 25 -29
6 -55 16 -58 21 -4 6 -42 12 -85 15 -56 4 -86 11 -103 24 -13 11 -31 19 -41
19 -10 0 -29 9 -42 20 -18 14 -49 21 -107 26 -44 4 -81 10 -81 15 0 4 -26 13
-57 20 -32 7 -61 18 -66 25 -4 7 -33 18 -65 24 -31 7 -60 16 -63 21 -3 5 -37
12 -75 16 -41 3 -76 12 -87 21 -10 9 -30 18 -44 20 -14 1 -37 11 -52 22 -14
10 -50 21 -79 24 -30 2 -61 11 -70 19 -9 8 -29 17 -43 21 -38 8 -88 59 -95 95
-4 17 -12 31 -19 31 -31 0 -30 475 0 487 8 2 18 18 24 34 5 16 15 29 20 29 6
0 11 7 11 15 0 9 8 18 18 22 9 3 24 12 32 18 24 21 50 24 139 19 50 -3 91 -10
100 -18z m7107 -1 c9 -9 29 -19 45 -22 20 -4 29 -12 29 -24 0 -11 5 -19 11
-19 13 0 39 -62 39 -94 0 -13 6 -26 13 -29 10 -4 13 -40 12 -159 0 -84 -5
-160 -10 -168 -5 -8 -10 -19 -10 -25 -3 -47 -20 -97 -36 -105 -10 -6 -19 -17
-19 -25 0 -8 -7 -15 -15 -15 -8 0 -19 -9 -25 -19 -5 -11 -24 -23 -42 -26 -18
-4 -37 -14 -43 -21 -5 -8 -32 -18 -59 -23 -27 -5 -52 -14 -56 -21 -4 -6 -24
-14 -46 -17 -21 -3 -49 -14 -63 -24 -16 -11 -51 -21 -91 -24 -35 -3 -67 -10
-70 -14 -3 -5 -31 -14 -62 -21 -32 -6 -58 -15 -58 -20 0 -4 -24 -13 -52 -20
-29 -6 -67 -18 -84 -26 -17 -7 -57 -16 -90 -20 -32 -4 -67 -13 -76 -21 -9 -8
-36 -19 -60 -24 -23 -6 -45 -15 -49 -21 -3 -5 -43 -14 -89 -19 -48 -6 -88 -15
-97 -24 -8 -8 -30 -15 -48 -15 -20 0 -42 -8 -52 -19 -10 -10 -40 -22 -68 -26
-27 -4 -55 -11 -61 -16 -5 -4 -44 -13 -85 -19 -40 -7 -79 -17 -84 -24 -6 -8
-33 -18 -60 -24 -28 -6 -64 -18 -80 -26 -17 -9 -53 -16 -82 -16 -30 0 -57 -6
-65 -14 -8 -7 -30 -17 -49 -21 -19 -4 -45 -15 -59 -25 -14 -9 -50 -20 -80 -24
-30 -4 -60 -12 -66 -17 -7 -5 -36 -12 -65 -16 -30 -3 -66 -14 -80 -24 -14 -10
-44 -21 -67 -25 -22 -3 -43 -12 -46 -19 -4 -10 -110 -27 -173 -27 -5 0 -25 -9
-45 -19 -21 -10 -44 -19 -52 -19 -8 0 -19 -7 -24 -15 -5 -10 -33 -20 -77 -26
-38 -5 -73 -13 -79 -18 -6 -5 -36 -12 -67 -15 -36 -5 -69 -16 -90 -32 -18 -13
-46 -24 -62 -24 -15 0 -35 -7 -43 -15 -21 -21 -142 -21 -150 -1 -3 8 -23 17
-45 21 -21 4 -39 11 -39 17 0 6 -11 21 -25 34 -14 13 -25 34 -25 48 0 14 -8
29 -17 35 -16 8 -18 31 -21 200 -2 108 1 204 7 223 24 78 40 113 55 116 9 2
16 12 16 23 0 11 7 19 16 19 9 0 22 7 28 15 6 8 36 19 65 25 30 6 58 15 62 22
4 6 33 13 64 16 36 3 64 11 75 22 10 10 38 20 63 24 25 4 47 13 50 20 3 8 34
15 88 19 48 4 89 12 98 21 9 7 32 17 51 21 19 4 43 14 52 22 9 9 39 18 65 20
26 3 53 10 60 15 7 5 16 7 21 4 5 -3 34 3 65 14 31 11 63 20 72 20 8 0 15 4
15 10 0 5 16 12 35 16 19 3 39 13 44 21 5 11 28 17 67 19 99 6 134 16 234 69
14 7 52 16 85 20 33 4 65 10 70 15 6 4 35 13 65 20 30 7 66 21 80 31 14 10 41
19 60 20 19 2 42 9 52 17 9 7 51 17 93 21 44 4 80 13 84 20 5 7 28 17 52 22
24 6 51 16 59 24 8 7 46 16 84 20 37 3 78 12 90 20 11 7 40 16 63 20 23 4 47
13 53 20 6 7 34 19 63 25 29 7 57 16 62 20 6 4 43 11 83 15 47 5 75 12 79 21
3 7 21 16 41 20 21 3 42 13 48 21 8 9 45 17 103 23 50 6 102 16 114 24 12 7
34 16 50 20 15 4 27 12 27 20 0 8 14 13 36 14 20 1 40 4 43 8 13 13 160 -4
177 -21z"/>
</g>
</svg>
